{"title":"The Wrong Man(1956)MP-4[DaScubaDude]","uid":12424292,"size":1291022811,"categoryP":"video","categoryS":"movies","magnet":"?xt=urn:btih:df2459c679efaa145ad82f0d4e6fe48384a95639&amp;dn=The+Wrong+Man%281956%29MP-4%5BDaScubaDude%5D&amp;tr=udp%3A%2F%2Ftracker.openbittorrent.com%3A80&amp;tr=udp%3A%2F%2Fopen.demonii.com%3A1337&amp;tr=udp%3A%2F%2Ftracker.coppersurfer.tk%3A6969&amp;tr=udp%3A%2F%2Fexodus.desync.com%3A6969","seeders":1,"leechers":0,"uploader":"dascuba","files":1,"time":1442352215,"description":"The Wrong Man (1956)\nNot Rated  |  105 min  |  Crime, Drama, Film-Noir  |  26 January 1957 (USA)\n7.5 Your rating:   -/10   Ratings: 7.5/10 from 17,069 users   \nReviews: 122 user | 55 critic\nTrue story of an innocent man mistaken for a criminal.\n\nDirector: Alfred Hitchcock\nWriters: Maxwell Anderson (screen play), Angus MacPhail (screen play), 1 more credit Â»\nStars: Henry Fonda, Vera Miles, Anthony Quayle\n\nGeneral\nComplete name                            : The Wrong ManTHE_WRONG_MAN_Title1.mp4\nFormat                                   : MPEG-4\nFormat profile                           : Base Media\nCodec ID                                 : isom\nFile size                                : 1.20 GiB\nDuration                                 : 1h 45mn\nOverall bit rate mode                    : Constant\nOverall bit rate                         : 1 634 Kbps\nMovie name                               : THE_WRONG_MAN\nGenre                                    : Drama\nWriting application                      : Lavf54.6.100\n\nVideo\nID                                       : 1\nFormat                                   : MPEG-4 Visual\nFormat settings, BVOP                    : No\nFormat settings, QPel                    : No\nFormat settings, GMC                     : No warppoints\nFormat settings, Matrix                  : Default (H.263)\nCodec ID                                 : 20\nDuration                                 : 1h 45mn\nBit rate mode                            : Constant\nBit rate                                 : 1 500 Kbps\nWidth                                    : 720 pixels\nHeight                                   : 404 pixels\nDisplay aspect ratio                     : 16:9\nFrame rate mode                          : Constant\nFrame rate                               : 29.970 fps\nColor space                              : YUV\nChroma subsampling                       : 4:2:0\nBit depth                                : 8 bits\nScan type                                : Progressive\nCompression mode                         : Lossy\nBits/(Pixel*Frame)                       : 0.172\nStream size                              : 1.10 GiB (92%)\nWriting library                          : Lavc54.23.100\n\nAudio\nID                                       : 2\nFormat                                   : MPEG Audio\nFormat version                           : Version 1\nFormat profile                           : Layer 3\nCodec ID                                 : 6B\nDuration                                 : 1h 45mn\nBit rate mode                            : Constant\nBit rate                                 : 128 Kbps\nChannel(s)                               : 2 channels\nChannel(s)_Original                      : 1 channel\nSampling rate                            : 44.1 KHz\nCompression mode                         : Lossy\nStream size                              : 96.5 MiB (8%)\nWriting library                          : LAME3.99.5","torrent":{"xt":"urn:btih:df2459c679efaa145ad82f0d4e6fe48384a95639","amp;dn":"The+Wrong+Man%281956%29MP-4%5BDaScubaDude%5D","amp;tr":["udp%3A%2F%2Ftracker.openbittorrent.com%3A80","udp%3A%2F%2Fopen.demonii.com%3A1337","udp%3A%2F%2Ftracker.coppersurfer.tk%3A6969","udp%3A%2F%2Fexodus.desync.com%3A6969"],"infoHash":"df2459c679efaa145ad82f0d4e6fe48384a95639","infoHashBuffer":{"type":"Buffer","data":[223,36,89,198,121,239,170,20,90,216,47,13,78,111,228,131,132,169,86,57]},"announce":[],"urlList":[]}}